PathFileType	4	(X/Y/Z)	Patient4_TMGait_0pt3_01_right_27.trc.trc
DataRate	CameraRate	NumFrames	NumMarkers	Units	OrigDataRate	OrigDataStartFrame	OrigNumFrames
50.909090909091	50.909090909091	4	33	mm	50.909090909091	124	       141
Frame#	Time	Sacral			L.Shoulder			Chest			R.Shoulder			Neck			R.ASIS			L.ASIS			R.Thigh.Superior			R.Thigh.Lateral			R.Thigh.Inferior			R.Patella			L.Thigh.Superior			L.Thigh.Lateral			L.Thigh.Inferior			L.Patella			L.Shank.Superior			L.Shank.Lateral			L.Shank.Inferior			R.Shank.Superior			R.Shank.Lateral			R.Shank.Inferior			R.Heel			R.Midfoot.Superior			R.Midfoot.Lateral			R.Toe			L.Heel			L.Midfoot.Lateral			L.Midfoot.Superior			L.Toe			L.Elbow			L.Wrist			R.Elbow			R.Wrist			
		X1	Y1	Z1	X2	Y2	Z2	X3	Y3	Z3	X4	Y4	Z4	X5	Y5	Z5	X6	Y6	Z6	X7	Y7	Z7	X8	Y8	Z8	X9	Y9	Z9	X10	Y10	Z10	X11	Y11	Z11	X12	Y12	Z12	X13	Y13	Z13	X14	Y14	Z14	X15	Y15	Z15	X16	Y16	Z16	X17	Y17	Z17	X18	Y18	Z18	X19	Y19	Z19	X20	Y20	Z20	X21	Y21	Z21	X22	Y22	Z22	X23	Y23	Z23	X24	Y24	Z24	X25	Y25	Z25	X26	Y26	Z26	X27	Y27	Z27	X28	Y28	Z28	X29	Y29	Z29	X30	Y30	Z30	X31	Y31	Z31	X32	Y32	Z32	X33	Y33	Z33	

124	52.316071428571	706.055941983266	996.320293725834	389.746882606633	949.710631516213	1432.779254588004	293.886481217285	983.317287696692	1353.479132477926	475.915334928080	844.980603691109	1423.586580053935	612.035247703096	875.512053542267	1485.155609515376	440.885847724396	896.028971169027	935.419299535367	569.675071312364	955.902183643636	952.420292157138	300.490578793617	966.923446224426	750.379094790005	552.948391454390	894.860534753750	631.006222581383	603.905335687653	992.469428055782	590.004939087260	539.615124010906	1012.506216597774	510.492008062793	552.467977925147	956.306597339065	721.977535304926	331.906469696106	853.544126199406	619.096302478108	258.467698929876	907.901308407377	530.957595850404	334.497074375027	892.034437624700	461.335241994310	343.012256794175	851.460883342636	395.719587907593	332.424476861797	744.537121811931	298.543335643459	278.016598005200	766.758322567983	182.019706940849	353.587805622354	1000.530609987242	421.020583908524	561.264054477925	944.294683684116	306.193939700113	619.471558415697	1019.657187623456	221.798209986210	573.785157591586	928.770274018999	40.233298934873	541.381537782075	1090.920272457119	109.773959521500	588.641876300710	1009.502756705788	37.031152026751	617.799058627247	1212.835929158966	70.275160077814	618.925847662471	615.939893846785	39.262909744845	394.309946536532	689.858536507189	35.130213766738	314.099780486872	774.760657609129	94.735397781141	341.617130173101	902.165669696391	39.392536854244	311.309229752713	1102.824245302344	1143.534208721206	145.943083207902	1354.663753379504	1130.421203521870	209.058170778002	657.412403629397	1121.962240999819	650.079797928313	601.492744620437	866.672096241147	662.869508129966	
125	52.335714285714	708.730480815372	995.230069674626	393.959538508716	950.120838633630	1432.527996025333	299.320651198023	983.992964771977	1353.357118627112	481.352884347471	845.085221855744	1422.714323979172	617.444308457675	875.296280096234	1484.414824458202	446.237741461057	898.585599973550	934.313340708934	574.128728194000	958.868608277803	952.212738499214	305.189863699239	969.914314573842	749.171004419750	556.287470081515	896.926599527750	629.651504696460	606.101525077218	994.662860242870	589.135935516391	541.809526750199	1013.227533307588	508.820085814294	553.840727406742	958.054699934294	720.856060701890	335.333841941790	854.225806869769	618.809087486370	261.604208174217	907.919074694638	529.923300713438	337.279892867452	891.540295224057	459.885495252781	345.311904627911	849.784585083469	394.927419982274	334.385543276943	741.383411145539	299.527325761019	279.415396018866	762.345814991939	182.132835421995	354.082304250480	1000.978805569013	418.801446520561	562.510780083135	943.520111185715	304.456964132795	620.044194398162	1017.461303475581	219.533479788997	573.609349342422	923.535666494492	40.327615420802	540.541972889874	1086.785268950371	107.118611111482	587.119249898073	1004.054861587704	36.640845345713	617.287806588224	1208.068675818822	65.848185326085	617.864890009048	610.004541824566	40.256282772081	393.967233346693	684.044431787286	35.492494919870	313.961571910618	769.250978663659	94.897770945835	341.405244756217	896.364474360400	39.183582945974	311.208333885356	1104.358934795204	1144.030477569287	150.938245829362	1356.378545926425	1136.450561828251	213.749888435563	661.428393365758	1118.579565865617	655.482183285862	609.260008880897	862.460137579617	669.225035297892	
126	52.355357142857	711.443020533014	994.572305848268	398.595594186452	950.575629273731	1432.709857367473	304.878246886974	984.867201538714	1353.629029464095	486.891778061630	845.454213752694	1422.228159325662	623.022912971080	875.193837570498	1484.078895744036	451.751022427943	901.421800306313	933.728790711319	578.792461846253	961.759711693576	952.414929585653	310.053111841364	973.392542615704	748.646837172175	559.513004387247	899.954250921076	629.015504111610	608.659941931949	997.546792941813	588.859213816265	544.022235477464	1014.703323038034	507.510788324108	555.445982046623	959.902051803208	720.088597582304	338.950339204986	855.205858882458	618.736175175966	264.976689396563	908.508835045526	529.138433441174	340.239724288799	891.740491188589	458.560448094769	347.658388307255	848.619157725809	394.357234485313	336.419214338672	738.588826329754	300.960385072434	280.952328920349	758.255664438793	182.599177533879	354.549953340411	1001.798253676510	416.959734478370	563.977251016435	942.809011008467	303.282213246223	621.017774068818	1014.877165006420	217.544513471910	573.625643402457	917.286479017577	40.596984894667	539.935292692021	1081.754194674260	104.734440756664	585.827012972459	997.670878548085	36.404611145419	617.015631922019	1202.421767315530	61.691968479545	616.887781598599	604.171922387445	41.929698774144	393.560603929611	678.305836509515	36.207823895341	313.786197688651	764.000592073556	95.192328992330	341.084015313545	890.598194607686	38.941066632252	311.085387883787	1105.374384171865	1144.644648267313	155.885862155746	1357.499162843467	1141.392543514148	218.194306353704	665.947346604493	1115.386679090502	661.449826122571	618.018288722740	858.451854799055	676.517453504814	
127	52.375000000000	714.102011665216	994.361546667593	403.646826403413	951.049223319113	1433.314270309775	310.503922790109	985.931033051917	1354.271647172392	492.465052556457	846.138796539239	1422.140604329638	628.732616249732	875.228087078975	1484.153523745883	457.381206516051	904.452008033856	933.645160998235	583.625269872599	964.459723625839	953.023540815066	315.016246009612	977.100492807126	748.684727452235	562.727835271469	903.536968062667	628.994005707416	611.606689605826	1000.764086643447	589.027115873087	546.373282779567	1016.605517568099	506.542360036708	557.352964771239	961.835268247430	719.737238851868	342.713113506941	856.563293132571	618.874907508089	268.527492304289	909.835107483402	528.628594253519	343.291792688782	892.818330714473	457.372697816465	349.951143514646	848.135816509745	394.013362598254	338.462119012610	736.297807114911	302.893307936721	282.608780370808	754.599715520775	183.475150656834	354.967408056629	1002.757327137223	415.513514112857	565.696803882350	942.085598581964	302.595964178273	622.391536648657	1012.026498359189	215.887240326527	573.884867327873	910.537428105115	40.929850168842	539.587071816757	1076.199848124536	102.747693388719	584.846322744730	990.860736311178	36.285336243462	616.984708437583	1196.318324256665	58.121631198510	616.065164581265	598.519143108725	44.469459378063	393.114482717060	672.682388732883	37.407872417314	313.583310936335	759.084666496653	95.659977540630	340.653306378344	884.866082626940	38.667458690437	310.949292525668	1105.879556071209	1145.385787805361	160.761739164608	1358.088257229638	1145.277483187510	222.407002440735	670.792564895155	1112.579748605080	667.933334158561	627.485093426422	854.883729447721	684.641940483334	
